<svg width="30" height="32" viewBox="0 0 30 32" fill="none" xmlns="http://www.w3.org/2000/svg">
<path d="M12 2C12 0.89375 12.8937 0 14 0H16C17.1062 0 18 0.89375 18 2V10.8062L25.625 6.40625C26.5812 5.85625 27.8062 6.18125 28.3562 7.1375L29.3562 8.86875C29.9062 9.825 29.5812 11.05 28.625 11.6L21 16L28.625 20.4C29.5812 20.95 29.9062 22.175 29.3562 23.1313L28.3562 24.8625C27.8062 25.8187 26.5812 26.15 25.625 25.5938L18 21.1938V30C18 31.1063 17.1062 32 16 32H14C12.8937 32 12 31.1063 12 30V21.1938L4.37499 25.6C3.41874 26.15 2.19374 25.825 1.64374 24.8687L0.643741 23.1375C0.0937408 22.1813 0.418741 20.9562 1.37499 20.4062L8.99999 16L1.37499 11.6C0.418741 11.05 0.0937408 9.825 0.643741 8.86875L1.64374 7.1375C2.19374 6.175 3.41874 5.85 4.37499 6.4L12 10.8V2Z" fill="#004346"/>
</svg>
